# xmcd CD database file
#
# Track frame offsets:
#	150
#	14723
#	33016
#	49111
#	64779
#	81917
#	101958
#	121639
#	133913
#	154948
#	170605
#	185113
#	203191
#	220406
#	236429
#	254024
#	273459
#	288621
#	307796
#	326580
#
# Disc length: 4571 seconds
#
# Revision: 3
# Processed by: cddbd v1.5.2PL0 Copyright (c) Steve Scherf et al.
# Submitted via: CDex 1.51
#
DISCID=3111d914
DTITLE=Various Artist - ZM-PCP-19
DYEAR=1900
DGENRE=Blues
TTITLE0=One Direction - Diana
TTITLE1=Lady Gaga Ft R Kelly - Do What U Want
TTITLE2=Elton John and Gary Barlow - Face To Face
TTITLE3=Olly Murs - Hand On Heart
TTITLE4=Lily Allen - Hard Out Here
TTITLE5=Justin Bieber - Heartbreaker
TTITLE6=Avicii - Hey Brother
TTITLE7=Ellie Goulding - How Long Will I Love You
TTITLE8=John Newman - Losing Sleep
TTITLE9=Union J - Loving You Is Easy
TTITLE10=One Direction - Midnight Memories
TTITLE11=Little Mix - Move
TTITLE12=Bastille - Of The Night
TTITLE13=Wanted The - Show Me Love (America)
TTITLE14=Sam Bailey - Skyscraper
TTITLE15=One Direction - Story Of My Life
TTITLE16=Calvin Harris and Alesso - Under Control
TTITLE17=Rihanna - What Now
TTITLE18=Fall Out Boy - Where Did The Party Go
TTITLE19=James Arthur - You're Nobody Til Somebody Loves You
EXTD=
EXTT0=
EXTT1=
EXTT2=
EXTT3=
EXTT4=
EXTT5=
EXTT6=
EXTT7=
EXTT8=
EXTT9=
EXTT10=
EXTT11=
EXTT12=
EXTT13=
EXTT14=
EXTT15=
EXTT16=
EXTT17=
EXTT18=
EXTT19=
PLAYORDER=
